HIERARCHY
ROOT Hips
{
  OFFSET 5.17789 92.9893 -330.024
  CHANNELS 6 Xposition Yposition Zposition Zrotation Xrotation Yrotation
  JOINT ToSpine
  {
    OFFSET -0.0105055 1.38907 -7.13956
    CHANNELS 3 Zrotation Xrotation Yrotation
    JOINT Spine
    {
      OFFSET 0.0105055 10 1
      CHANNELS 3 Zrotation Xrotation Yrotation
      JOINT Spine1
      {
        OFFSET 0 12 1.60637
        CHANNELS 3 Zrotation Xrotation Yrotation
        JOINT Neck
        {
          OFFSET 0 27 2.26658
          CHANNELS 3 Zrotation Xrotation Yrotation
          JOINT Head
          {
            OFFSET 0 9 2.12705
            CHANNELS 3 Zrotation Xrotation Yrotation
            End Site
            {
              OFFSET 0 11 2
            }
          }
        }
        JOINT LeftShoulder
        {
          OFFSET 8 19.6109 2.86452
          CHANNELS 3 Zrotation Xrotation Yrotation
          JOINT LeftArm
          {
            OFFSET 12 1 0.681055
            CHANNELS 3 Zrotation Xrotation Yrotation
            JOINT LeftForeArm
            {
              OFFSET 19 0 -1.52608
              CHANNELS 3 Zrotation Xrotation Yrotation
              JOINT LeftHand
              {
                OFFSET 23 0 0
                CHANNELS 3 Zrotation Xrotation Yrotation
                End Site
                {
                  OFFSET 10 0 0
                }
              }
            }
          }
        }
        JOINT RightShoulder
        {
          OFFSET -8 19.6109 2.86452
          CHANNELS 3 Zrotation Xrotation Yrotation
          JOINT RightArm
          {
            OFFSET -12 1 0.681055
            CHANNELS 3 Zrotation Xrotation Yrotation
            JOINT RightForeArm
            {
              OFFSET -19 0 -1.52608
              CHANNELS 3 Zrotation Xrotation Yrotation
              JOINT RightHand
              {
                OFFSET -23 0 0
                CHANNELS 3 Zrotation Xrotation Yrotation
                End Site
                {
                  OFFSET -10 0 0
                }
              }
            }
          }
        }
      }
    }
  }
  JOINT LeftUpLeg
  {
    OFFSET 9 -7.17245 0
    CHANNELS 3 Zrotation Xrotation Yrotation
    JOINT LeftLeg
    {
      OFFSET 0 -44.1113 0
      CHANNELS 3 Zrotation Xrotation Yrotation
      JOINT LeftFoot
      {
        OFFSET 0 -36.1829 0
        CHANNELS 3 Zrotation Xrotation Yrotation
        JOINT LeftToeBase
        {
          OFFSET 0 -4.84184 13
          CHANNELS 3 Zrotation Xrotation Yrotation
          End Site
          {
            OFFSET 0 1 6
          }
        }
      }
    }
  }
  JOINT RightUpLeg
  {
    OFFSET -9 -7.17245 0
    CHANNELS 3 Zrotation Xrotation Yrotation
    JOINT RightLeg
    {
      OFFSET 0 -44.0551 0
      CHANNELS 3 Zrotation Xrotation Yrotation
      JOINT RightFoot
      {
        OFFSET 0 -36.1469 0
        CHANNELS 3 Zrotation Xrotation Yrotation
        JOINT RightToeBase
        {
          OFFSET 0 -4.92256 13
          CHANNELS 3 Zrotation Xrotation Yrotation
          End Site
          {
            OFFSET 0 1 6
          }
        }
      }
    }
  }
}
MOTION
Frames:	12
Frame Time:	0.0333333
5.17789 92.9893 -330.024 8.63174 -3.51936 16.1847 0 0 0 -4.72233 -18.2311 -0.301793 -3.7955 30.6938 -0.957511 -3.3573 10.2666 1.65837 0.733348 -4.55607 0.24903 -37.7795 3.29433 -3.98585 -44.084 17.9946 9.62484 -4.54757 -15.9053 -11.0554 -11.1997 0.0881808 -0.899341 23.0127 6.10028 17.1046 49.6792 19.8053 10.6299 4.57754 -4.79309 11.7918 6.88116 0.0998577 1.66081 -17.3552 -22.6441 -3.10572 -3.90863 30.5183 -18.7807 8.97048 -3.6377 0.285446 0.595883 -1.09717 -2.28219 10.2623 23.7094 -0.365032 -6.32514 8.61113 -33.4539 -11.0745 -19.274 -1.88617 6.86301 -24.7556 0.459421 
5.37669 93.0793 -328.451 9.4466 -3.82734 11.3074 0 0 0 -0.249115 -13.8147 2.1485 -9.52821 25.9806 2.64358 -4.18808 9.66215 1.83346 1.68417 -3.87849 -0.0615948 -38.9132 3.36593 -3.94778 -42.806 16.9497 8.85901 -4.16333 -15.0369 -8.19571 -11.4348 0.14327 -1.43091 21.8801 5.53578 15.9267 51.8925 18.601 10.6102 2.7222 1.6135 11.8675 6.25705 0.141909 2.5959 -18.2507 -22.9925 -3.81619 -3.43159 31.5249 -13.4195 11.7203 -1.87836 0.192807 0.649461 -0.767729 -2.57803 5.23235 22.3982 -2.53584 -3.43427 14.1552 -25.8029 -12.0722 -20.1503 -2.15271 7.73414 -26.6059 2.97008 
5.56724 94.9979 -325.409 7.76249 -4.7217 7.52835 0 0 0 5.757 -10.6266 2.78134 -14.128 21.0459 5.33019 -3.75275 9.83641 1.70674 2.02515 -4.05105 -0.0907977 -39.0279 3.31911 -3.82483 -41.2042 16.1824 5.26916 -3.94247 -14.453 -1.14488 -11.4354 0.244002 -2.43661 22.3689 5.55841 15.6971 52.613 20.0282 10.0944 4.46598 -3.44536 11.2801 1.40685 0.061938 5.04151 -16.0574 -19.1566 -4.00338 -2.53091 28.2473 -11.4987 13.2573 -1.98363 0.230543 0.241841 -0.520829 -0.886091 3.51865 29.0401 -7.72934 -0.91773 3.21068 -13.5067 -10.833 -13.1291 -1.25031 6.71481 -24.9564 -1.44387 
5.83276 95.5144 -323.026 8.35908 -4.58824 3.47177 0 0 0 8.34375 -8.57035 3.76686 -18.4632 17.5695 7.49492 -1.97589 10.6979 1.34584 0.990207 -4.1039 0.408532 -37.8764 3.23396 -3.83209 -41.7036 14.8352 6.80385 -4.03735 -15.2927 -4.64201 -11.3676 0.119361 -1.19923 23.457 6.01226 16.5308 53.1639 18.8297 8.67308 3.42006 -0.295822 11.5178 2.89858 0.0856542 3.38452 -16.1341 -17.9463 -3.33646 -2.49851 27.9038 -8.16366 12.3632 -4.46087 0.483395 0.349587 0.657806 -1.60364 -1.05355 29.9297 -11.1936 2.69974 1.50583 -6.75714 -27.9337 5.93705 1.47786 15.1223 -50.6978 -0.0893996 
5.90166 97.2226 -319.787 7.13333 -4.79106 0.0241252 0 0 0 11.4671 -7.64695 4.60773 -19.7027 15.1981 9.20165 -1.42776 10.996 0.498038 0.423279 -3.75709 -0.13581 -38.1362 3.36299 -4.0776 -40.6784 18.749 5.71139 -5.25536 -20.3265 -5.88906 -11.2483 0.0862352 -0.875675 22.7046 5.79769 16.2942 54.5198 19.7586 7.45514 4.6479 -4.47177 11.356 7.44515 0.188634 2.89865 -13.541 -13.4308 -1.39882 -3.30269 22.6203 -6.62007 12.3299 -3.99091 0.431255 0.374279 -0.417356 -1.47363 -4.19653 26.9623 -13.8454 0.452649 11.7262 5.4432 4.01022 -7.54665 0.264591 5.27861 -17.9808 9.91188 
5.99257 96.6384 -318.279 8.81969 -4.43888 -3.63123 0 0 0 10.8164 -5.42635 5.7244 -21.7938 12.8878 10.3286 -0.711732 10.7719 0.413242 0.174951 -4.01223 0.108317 -37.5866 3.37655 -4.20743 -40.1002 18.6266 5.40231 -5.88465 -21.8682 -9.28582 -10.9403 0.0210424 -0.219733 22.9845 5.77687 16.0493 54.2107 18.9139 6.76534 2.67228 2.38601 11.7804 5.03555 0.192278 4.37064 -14.8902 -14.2953 -0.772083 -3.81331 24.8483 -3.66888 9.65793 -6.62726 0.560501 0.390443 -0.110541 -1.60936 -10.9708 21.3821 -2.68281 -0.0118797 25.9294 1.18479 59.0984 -25.7973 14.7941 -20.5853 47.9201 13.7411 
6.02849 95.9606 -317.112 10.0002 -4.89613 -6.38899 0 0 0 8.8782 -2.09371 6.05216 -21.7726 10.5674 10.0985 -0.713281 10.097 0.842926 0.0680399 -3.9771 0.566899 -38.3549 3.38139 -4.07998 -37.8754 14.4354 1.0616 -4.26162 -18.0558 -5.15982 -10.6664 0.181433 -1.94336 23.0074 5.91601 16.4971 53.4251 20.0535 5.74264 2.85361 0.513803 13.0049 4.20235 0.146848 4.00091 -15.7436 -15.0167 0.360584 -4.5634 27.8545 -0.922827 11.1294 -9.56367 0.933929 0.304776 -0.407927 -1.18071 -15.5219 15.9547 -1.19901 1.33273e-009 37.6085 -0.172445 81.8021 -19.2072 16.6773 -21.201 60.7389 7.03353 
5.85366 95.5133 -315.733 10.4313 -5.71402 -8.77368 0 0 0 7.08785 0.865851 6.18902 -21.4526 8.99811 9.78114 0.0943347 9.30621 1.01791 -0.338089 -4.75801 1.12871 -37.7192 3.35228 -4.12815 -36.7539 14.7042 -1.64814 -4.39403 -17.9496 -6.35566 -10.4258 0.19015 -2.08397 23.2868 6.01092 16.6336 52.3066 19.6421 5.43976 2.03354 2.2908 13.621 4.74151 0.150863 3.64272 -16.2168 -14.5299 0.768681 -4.7535 29.8181 1.18537 10.7347 -11.6906 1.10216 0.138428 -1.036 -0.308886 -18.1053 10.6942 1.12209 1.84586e-007 48.9225 -7.26146 95.9781 -12.0537 13.3705 -12.3002 70.2676 -8.98473 
5.96903 98.0773 -311.769 6.62369 -6.29224 -8.85292 0 0 0 9.88399 1.9972 4.27082 -18.6898 7.22188 8.57944 1.10552 8.42345 0.994831 -0.645841 -4.69106 1.53409 -37.2269 3.38887 -4.30194 -35.1106 14.4524 -5.26956 -4.10907 -16.2466 -5.69704 -10.3196 0.242231 -2.68203 23.3359 5.96172 16.4411 51.8558 19.1548 5.11351 3.89814 -4.50413 13.5768 2.73911 0.108065 4.51774 -12.6908 -5.70924 1.12974 -4.5497 19.6294 -0.0661572 10.8668 -9.18282 0.875291 0.159793 -0.719955 -0.485034 -14.8649 2.41889 -8.7848 4.75437e-007 57.8475 17.7337 -8.16328 5.63902 0.402718 4.99307 -18.6589 -1.57414 
5.52532 97.791 -310.026 6.05137 -6.83955 -9.54469 0 0 0 8.35524 3.33637 4.1199 -17.218 7.17921 7.79026 1.97836 8.21396 0.79268 -1.04114 -4.7492 1.72191 -36.9138 3.53855 -4.70696 -32.7562 15.3255 -9.46956 -4.48571 -16.7817 -4.85975 -9.80627 0.22395 -2.61013 24.0088 5.97583 16.0729 50.6007 17.7693 4.77737 3.70227 -4.71464 13.599 1.65689 0.0469746 3.2477 -11.9632 -5.13503 2.25922 -4.60071 22.6488 -0.0765738 11.7597 -12.7554 1.319 0.684211 1.30273 -3.07755 -13.8905 -2.07039 -6.01149 -8.36863e-007 62.8155 16.2586 -14.5131 -1.16089 -0.147823 5.56915 -20.8971 -1.92804 
5.09239 97.8074 -307.992 5.52528 -6.47668 -9.52936 0 0 0 7.20521 3.28496 3.51474 -16.126 6.91733 6.78635 3.12829 8.98418 0.937975 -0.452062 -5.21176 2.20793 -35.719 3.5491 -4.97284 -31.179 15.3714 -13.4449 -4.3678 -15.5954 -3.1323 -9.75853 0.224726 -2.63204 24.63 6.01251 15.8197 50.1096 16.1469 4.5443 3.59749 -4.6174 13.066 1.65919 0.0415292 2.8674 -11.3549 -4.08477 2.61842 -4.35272 23.0653 -0.646217 11.5872 -13.4445 1.37035 0.1547 -1.85357 -0.153154 -12.0196 -6.47887 -3.28147 2.4333e-007 64.0815 11.6807 -19.5791 -9.01367 -1.55836 5.31205 -20.0898 -2.64011 
4.701 98.087 -306.005 4.20761 -6.41325 -9.57105 0 0 0 6.63651 4.52919 2.76103 -14.4424 5.72985 5.6001 4.03803 9.12178 0.787424 -0.73219 -4.7865 2.45396 -35.2511 3.61531 -5.23013 -28.9811 15.6049 -16.7227 -4.43691 -15.0185 -2.70302 -10.1758 0.229175 -2.57357 24.4393 5.83196 15.3583 50.6796 14.6823 3.0612 3.17428 -5.06006 14.4045 2.29288 0.0647791 3.23618 -10.1217 -2.01388 3.12642 -3.82722 22.0936 -0.633993 12.5702 -15.5045 1.71801 0.541863 0.486925 -2.35934 -8.7397 -10.4465 0.277511 1.81886e-007 62.8588 4.2754 -22.2508 -14.2752 -2.82131 4.53446 -16.7318 0.350391 
